<?xml version="1.0" standalone="no"?>
<!DOCTYPE svg PUBLIC "-//W3C//DTD SVG 20010904//EN"
 "http://www.w3.org/TR/2001/REC-SVG-20010904/DTD/svg10.dtd">
<svg version="1.0" xmlns="http://www.w3.org/2000/svg"
 width="781.000000pt" height="339.000000pt" viewBox="0 0 781.000000 339.000000"
 preserveAspectRatio="xMidYMid meet">

<g transform="translate(0.000000,339.000000) scale(0.100000,-0.100000)"
fill="#000000" stroke="none">
<path d="M537 2123 c-11 -10 -8 -51 3 -58 25 -16 8 -44 -42 -70 -29 -15 -55
-31 -58 -34 -3 -4 -23 -20 -45 -37 -69 -51 -205 -212 -205 -243 0 -15 -6 -14
-45 5 -50 23 -80 16 -80 -21 0 -24 7 -33 40 -49 22 -11 41 -21 42 -21 1 -1 -7
-30 -18 -65 -29 -91 -37 -271 -15 -363 22 -92 21 -95 -19 -111 -26 -11 -35
-21 -35 -39 0 -39 22 -51 64 -36 20 7 37 11 39 8 2 -2 25 -38 51 -79 57 -89
158 -191 241 -244 33 -21 61 -40 63 -41 2 -2 -4 -20 -13 -41 -22 -53 -13 -86
23 -82 24 3 49 34 65 81 1 4 45 -4 97 -18 118 -31 241 -33 350 -6 41 11 77 18
78 16 2 -2 11 -18 20 -37 19 -37 52 -48 72 -23 11 13 11 23 1 51 -13 35 -3 64
21 64 22 0 129 78 189 139 60 60 131 152 141 183 3 9 16 8 50 -5 47 -18 73
-15 82 9 9 24 -3 40 -49 62 -43 21 -44 23 -34 49 24 60 39 163 38 258 0 94
-15 196 -31 221 -5 8 6 17 31 27 43 18 56 39 40 69 -11 20 -30 21 -84 3 -17
-5 -25 2 -44 37 -44 81 -126 180 -193 234 -37 30 -71 54 -75 54 -4 0 -21 10
-36 23 l-28 22 20 40 c25 51 14 78 -31 73 -27 -3 -34 -9 -47 -46 -11 -31 -19
-41 -31 -36 -110 46 -365 59 -448 24 -42 -18 -61 -12 -76 25 -12 29 -20 35
-44 35 -16 0 -32 -3 -35 -7z m491 -129 c42 -8 81 -19 86 -24 4 -4 1 -21 -7
-37 -8 -15 -22 -44 -30 -63 -9 -19 -24 -55 -35 -80 -19 -43 -34 -77 -104 -231
-30 -66 -30 -67 -77 -73 -88 -12 -151 -75 -151 -153 0 -36 -3 -40 -37 -52 -21
-8 -122 -47 -225 -87 -248 -97 -233 -94 -249 -47 -9 24 -14 86 -14 173 0 140
8 180 58 290 86 190 297 355 497 390 77 13 207 11 288 -6z m238 -103 c107 -70
205 -190 251 -306 36 -89 42 -118 48 -215 11 -164 -16 -273 -105 -431 -29 -52
-140 -162 -203 -202 -91 -58 -87 -60 -131 51 -21 53 -42 106 -46 117 -5 11
-25 63 -45 115 -20 52 -41 103 -46 112 -11 22 -12 58 -1 58 12 0 44 59 53 97
9 43 -11 116 -42 149 -15 16 -19 27 -12 36 5 7 19 36 31 64 11 27 37 85 56
127 20 42 36 79 36 82 0 2 15 37 34 77 19 40 37 81 40 91 8 24 15 22 82 -22z
m-329 -513 c52 -49 14 -148 -57 -148 -45 0 -68 16 -85 56 -15 38 -11 58 23 97
22 25 90 23 119 -5z m-181 -179 c27 -30 68 -49 107 -49 l34 0 52 -137 c29 -76
59 -151 66 -168 7 -16 25 -59 38 -95 14 -36 28 -72 31 -81 17 -41 -268 -59
-389 -24 -187 54 -338 173 -428 336 l-25 46 96 38 c54 20 111 43 127 50 17 6
57 22 90 35 90 33 97 36 135 53 45 20 44 20 66 -4z"/>
</g>
</svg>
